# xmcd
# Copyright (C) 1995-1998 Ti Kan
#
# Track frame offsets:
#       150
#       17705
#       37110
#       66280
#       80502
#       86421
#       101176
#
# Disc length: 1474 seconds
#
# Revision: 0
# Processed by: cddbd v1.5.2PL0 Copyright (c) Steve Scherf et al.
# Submitted via: CD-Import v1.0
#
DISCID=5605c007
DTITLE=Dee Day Dub - Bootlegs, Volume I
DYEAR=08
DGENRE=
TTITLE0=Moving Sides
TTITLE1=Down In The Drain
TTITLE2=Big City
TTITLE3=Hidden Track
TTITLE4=Pocket Rocket Dub
TTITLE5=Generation Dee
TTITLE6=Brainwash Dub
EXTD=
EXTT0=
EXTT1=
EXTT2=
EXTT3=
EXTT4=
EXTT5=
EXTT6=
PLAYORDER=
